<mxfile>
    <diagram id="UWfr_8u_XDgxKo2Io5U4" name="Page-1">
        <mxGraphModel dx="1181" dy="597" grid="1" gridSize="10" guides="1" tooltips="1" connect="1" arrows="1" fold="1" page="1" pageScale="1" pageWidth="1400" pageHeight="850" math="0" shadow="0">
            <root>
                <mxCell id="0"/>
                <mxCell id="1" parent="0"/>
                <mxCell id="2" value="&lt;b&gt;&lt;font style=&quot;font-size: 14px&quot; color=&quot;#ff8000&quot;&gt;HashTable:&lt;/font&gt;&lt;/b&gt;" style="text;html=1;resizable=0;autosize=1;align=center;verticalAlign=middle;points=[];fillColor=none;strokeColor=none;rounded=0;" vertex="1" parent="1">
                    <mxGeometry x="5" y="20" width="90" height="20" as="geometry"/>
                </mxCell>
                <mxCell id="7" value="" style="rhombus;whiteSpace=wrap;html=1;" vertex="1" parent="1">
                    <mxGeometry x="120" y="40" width="80" height="80" as="geometry"/>
                </mxCell>
                <mxCell id="8" value="" style="rhombus;whiteSpace=wrap;html=1;" vertex="1" parent="1">
                    <mxGeometry x="200" y="40" width="80" height="80" as="geometry"/>
                </mxCell>
                <mxCell id="9" value="&lt;font color=&quot;#ff8000&quot;&gt;Bhag, 1&lt;/font&gt;" style="rhombus;whiteSpace=wrap;html=1;" vertex="1" parent="1">
                    <mxGeometry x="280" y="40" width="80" height="80" as="geometry"/>
                </mxCell>
                <mxCell id="10" value="" style="rhombus;whiteSpace=wrap;html=1;" vertex="1" parent="1">
                    <mxGeometry x="360" y="40" width="80" height="80" as="geometry"/>
                </mxCell>
                <mxCell id="11" value="" style="rhombus;whiteSpace=wrap;html=1;" vertex="1" parent="1">
                    <mxGeometry x="440" y="40" width="80" height="80" as="geometry"/>
                </mxCell>
                <mxCell id="12" value="" style="rhombus;whiteSpace=wrap;html=1;" vertex="1" parent="1">
                    <mxGeometry x="520" y="40" width="80" height="80" as="geometry"/>
                </mxCell>
                <mxCell id="14" value="&lt;b&gt;&lt;font color=&quot;#ff8000&quot;&gt;&amp;nbsp; 0&amp;nbsp; &amp;nbsp; &amp;nbsp; &amp;nbsp; &amp;nbsp; &amp;nbsp; &amp;nbsp; &amp;nbsp; &amp;nbsp; &amp;nbsp; &amp;nbsp; 1&amp;nbsp; &amp;nbsp; &amp;nbsp; &amp;nbsp; &amp;nbsp; &amp;nbsp; &amp;nbsp; &amp;nbsp; &amp;nbsp; &amp;nbsp; &amp;nbsp;2&amp;nbsp; &amp;nbsp; &amp;nbsp; &amp;nbsp; &amp;nbsp; &amp;nbsp; &amp;nbsp; &amp;nbsp; &amp;nbsp; &amp;nbsp; &amp;nbsp; 3&amp;nbsp; &amp;nbsp; &amp;nbsp; &amp;nbsp; &amp;nbsp; &amp;nbsp; &amp;nbsp; &amp;nbsp; &amp;nbsp; &amp;nbsp; &amp;nbsp; 4&amp;nbsp; &amp;nbsp; &amp;nbsp; &amp;nbsp; &amp;nbsp; &amp;nbsp; &amp;nbsp; &amp;nbsp; &amp;nbsp; &amp;nbsp; &amp;nbsp; 5&amp;nbsp; &amp;nbsp; &amp;nbsp; &amp;nbsp; &amp;nbsp;n&lt;/font&gt;&lt;/b&gt;" style="text;html=1;align=left;verticalAlign=middle;resizable=0;points=[];autosize=1;" vertex="1" parent="1">
                    <mxGeometry x="150" y="130" width="460" height="20" as="geometry"/>
                </mxCell>
                <mxCell id="15" value="&lt;font color=&quot;#ff8000&quot;&gt;Key = Bhag&lt;br&gt;&lt;br&gt;Value = 1&lt;br&gt;&lt;/font&gt;" style="text;html=1;align=left;verticalAlign=middle;resizable=0;points=[];autosize=1;" vertex="1" parent="1">
                    <mxGeometry x="20" y="150" width="80" height="50" as="geometry"/>
                </mxCell>
                <mxCell id="16" value="&lt;font color=&quot;#ff8000&quot;&gt;Key = gahB&lt;br&gt;&lt;br&gt;Value = 2&lt;br&gt;&lt;/font&gt;" style="text;html=1;align=left;verticalAlign=middle;resizable=0;points=[];autosize=1;" vertex="1" parent="1">
                    <mxGeometry x="20" y="230" width="80" height="50" as="geometry"/>
                </mxCell>
                <mxCell id="17" value="" style="curved=1;endArrow=classic;html=1;entryX=0.5;entryY=1;entryDx=0;entryDy=0;" edge="1" parent="1" target="9">
                    <mxGeometry width="50" height="50" relative="1" as="geometry">
                        <mxPoint x="90" y="170" as="sourcePoint"/>
                        <mxPoint x="300" y="20" as="targetPoint"/>
                        <Array as="points">
                            <mxPoint x="220" y="170"/>
                            <mxPoint x="310" y="170"/>
                        </Array>
                    </mxGeometry>
                </mxCell>
                <mxCell id="18" value="" style="curved=1;endArrow=classic;html=1;exitX=0.988;exitY=0.2;exitDx=0;exitDy=0;exitPerimeter=0;" edge="1" parent="1" source="16">
                    <mxGeometry width="50" height="50" relative="1" as="geometry">
                        <mxPoint x="100" y="180" as="sourcePoint"/>
                        <mxPoint x="320" y="130" as="targetPoint"/>
                        <Array as="points">
                            <mxPoint x="200" y="240"/>
                            <mxPoint x="240" y="240"/>
                            <mxPoint x="270" y="240"/>
                            <mxPoint x="300" y="240"/>
                            <mxPoint x="310" y="240"/>
                            <mxPoint x="320" y="210"/>
                            <mxPoint x="320" y="190"/>
                            <mxPoint x="320" y="180"/>
                        </Array>
                    </mxGeometry>
                </mxCell>
                <mxCell id="19" value="" style="endArrow=none;html=1;" edge="1" parent="1" target="9">
                    <mxGeometry width="50" height="50" relative="1" as="geometry">
                        <mxPoint x="370" y="200" as="sourcePoint"/>
                        <mxPoint x="630" y="270" as="targetPoint"/>
                    </mxGeometry>
                </mxCell>
                <mxCell id="20" value="&lt;font color=&quot;#ff8000&quot;&gt;gahB, 2&lt;/font&gt;" style="text;html=1;align=left;verticalAlign=middle;resizable=0;points=[];autosize=1;" vertex="1" parent="1">
                    <mxGeometry x="350" y="200" width="60" height="20" as="geometry"/>
                </mxCell>
                <mxCell id="21" value="&lt;font style=&quot;font-size: 14px&quot; color=&quot;#ff8000&quot;&gt;&lt;b&gt;Hash:&lt;br&gt;&lt;/b&gt;&lt;/font&gt;&lt;font color=&quot;#ff8000&quot; style=&quot;font-size: 12px&quot;&gt;B = 67&lt;br&gt;h = 104&lt;br&gt;a =&amp;nbsp;&lt;br&gt;g =&amp;nbsp;&lt;br&gt;Sum =&amp;nbsp;&lt;br&gt;&lt;/font&gt;" style="text;html=1;align=left;verticalAlign=middle;resizable=0;points=[];autosize=1;" vertex="1" parent="1">
                    <mxGeometry x="20" y="320" width="60" height="90" as="geometry"/>
                </mxCell>
            </root>
        </mxGraphModel>
    </diagram>
</mxfile>